<svg width="40" height="40" viewBox="0 0 40 40" fill="none" xmlns="http://www.w3.org/2000/svg">
<rect width="40" height="40" rx="20" fill="url(#paint0_linear_1910_13)"/>
<path d="M25.0597 23.521C25.5275 23.2015 26.0762 23.0211 26.6423 23.0004C27.2084 22.9798 27.7687 23.1199 28.2585 23.4044C28.7483 23.689 29.1476 24.1064 29.4101 24.6084C29.6725 25.1104 29.7875 25.6764 29.7417 26.241C28.5419 26.6603 27.2675 26.8235 26.0007 26.72C25.9968 25.5866 25.6704 24.4768 25.0597 23.522C24.5176 22.6718 23.7698 21.972 22.8855 21.4875C22.0013 21.003 21.009 20.7493 20.0007 20.75C18.9926 20.7495 18.0005 21.0032 17.1164 21.4877C16.2323 21.9723 15.4847 22.6719 14.9427 23.522M25.9997 26.719L26.0007 26.75C26.0007 26.975 25.9887 27.197 25.9637 27.416C24.1491 28.4571 22.0928 29.0033 20.0007 29C17.8307 29 15.7937 28.424 14.0377 27.416C14.012 27.1846 13.9997 26.9519 14.0007 26.719M14.0007 26.719C12.7343 26.8263 11.4606 26.6637 10.2617 26.242C10.2161 25.6776 10.3311 25.1117 10.5935 24.6099C10.856 24.1081 11.2551 23.6908 11.7447 23.4063C12.2344 23.1218 12.7945 22.9817 13.3604 23.0021C13.9264 23.0226 14.4749 23.2028 14.9427 23.522M14.0007 26.719C14.0043 25.5857 14.3323 24.4769 14.9427 23.522M23.0007 14.75C23.0007 15.5456 22.6846 16.3087 22.122 16.8713C21.5594 17.4339 20.7964 17.75 20.0007 17.75C19.2051 17.75 18.442 17.4339 17.8794 16.8713C17.3168 16.3087 17.0007 15.5456 17.0007 14.75C17.0007 13.9544 17.3168 13.1913 17.8794 12.6287C18.442 12.0661 19.2051 11.75 20.0007 11.75C20.7964 11.75 21.5594 12.0661 22.122 12.6287C22.6846 13.1913 23.0007 13.9544 23.0007 14.75ZM29.0007 17.75C29.0007 18.0455 28.9425 18.3381 28.8294 18.611C28.7164 18.884 28.5506 19.1321 28.3417 19.341C28.1328 19.5499 27.8847 19.7157 27.6118 19.8287C27.3388 19.9418 27.0462 20 26.7507 20C26.4552 20 26.1627 19.9418 25.8897 19.8287C25.6167 19.7157 25.3687 19.5499 25.1597 19.341C24.9508 19.1321 24.7851 18.884 24.672 18.611C24.5589 18.3381 24.5007 18.0455 24.5007 17.75C24.5007 17.1533 24.7378 16.581 25.1597 16.159C25.5817 15.7371 26.154 15.5 26.7507 15.5C27.3475 15.5 27.9198 15.7371 28.3417 16.159C28.7637 16.581 29.0007 17.1533 29.0007 17.75ZM15.5007 17.75C15.5007 18.0455 15.4425 18.3381 15.3294 18.611C15.2164 18.884 15.0506 19.1321 14.8417 19.341C14.6328 19.5499 14.3847 19.7157 14.1118 19.8287C13.8388 19.9418 13.5462 20 13.2507 20C12.9552 20 12.6627 19.9418 12.3897 19.8287C12.1167 19.7157 11.8687 19.5499 11.6597 19.341C11.4508 19.1321 11.2851 18.884 11.172 18.611C11.0589 18.3381 11.0007 18.0455 11.0007 17.75C11.0007 17.1533 11.2378 16.581 11.6597 16.159C12.0817 15.7371 12.654 15.5 13.2507 15.5C13.8475 15.5 14.4198 15.7371 14.8417 16.159C15.2637 16.581 15.5007 17.1533 15.5007 17.75Z" stroke="white" stroke-width="1.5" stroke-linecap="round" stroke-linejoin="round"/>
<defs>
<linearGradient id="paint0_linear_1910_13" x1="20" y1="0" x2="20" y2="40" gradientUnits="userSpaceOnUse">
<stop stop-color="#865DFF"/>
<stop offset="1" stop-color="#2AABEE"/>
</linearGradient>
</defs>
</svg>
