<svg width="40" height="40" viewBox="0 0 40 40" fill="none" xmlns="http://www.w3.org/2000/svg">
<rect width="40" height="40" rx="20" fill="url(#paint0_linear_1910_15)"/>
<path d="M28.25 16.511C29.134 16.795 29.75 17.639 29.75 18.608V22.894C29.75 24.03 28.903 24.994 27.77 25.087C27.43 25.114 27.09 25.139 26.75 25.159V28.25L23.75 25.25C22.396 25.25 21.056 25.195 19.73 25.087C19.4413 25.0637 19.1605 24.9813 18.905 24.845M28.25 16.511C28.0955 16.4613 27.9358 16.4294 27.774 16.416C25.0959 16.1937 22.4041 16.1937 19.726 16.416C18.595 16.51 17.75 17.473 17.75 18.608V22.894C17.75 23.731 18.21 24.474 18.905 24.845M28.25 16.511V14.637C28.25 13.016 27.098 11.611 25.49 11.402C23.4208 11.1338 21.3365 10.9995 19.25 11C17.135 11 15.052 11.137 13.01 11.402C11.402 11.611 10.25 13.016 10.25 14.637V20.863C10.25 22.484 11.402 23.889 13.01 24.098C13.587 24.173 14.167 24.238 14.75 24.292V29L18.905 24.845" stroke="white" stroke-width="1.5" stroke-linecap="round" stroke-linejoin="round"/>
<defs>
<linearGradient id="paint0_linear_1910_15" x1="20" y1="0" x2="20" y2="40" gradientUnits="userSpaceOnUse">
<stop stop-color="#4F75FF"/>
<stop offset="1" stop-color="#865DFF"/>
</linearGradient>
</defs>
</svg>
