<svg width="40" height="40" viewBox="0 0 40 40" fill="none" xmlns="http://www.w3.org/2000/svg">
<rect width="40" height="40" rx="20" fill="#DBEAFE"/>
<path d="M23.3149 12.7842C23.7479 12.4414 23.821 11.8125 23.4782 11.3795C23.1354 10.9464 22.5065 10.8733 22.0735 11.2161L23.3149 12.7842ZM19.3789 13.3495C18.9458 13.6923 18.8727 14.3212 19.2155 14.7542C19.5583 15.1872 20.1873 15.2603 20.6202 14.9175L19.3789 13.3495ZM19.3789 14.9175C19.8118 15.2603 20.4407 15.1872 20.7835 14.7542C21.1263 14.3212 21.0533 13.6923 20.6202 13.3495L19.3789 14.9175ZM17.9255 11.2161C17.4926 10.8733 16.8636 10.9464 16.5208 11.3795C16.178 11.8125 16.2511 12.4414 16.6841 12.7842L17.9255 11.2161ZM18.9995 14.1335C18.9995 14.6858 19.4473 15.1335 19.9995 15.1335C20.5518 15.1335 20.9995 14.6858 20.9995 14.1335H18.9995ZM20.9995 9.3335C20.9995 8.78122 20.5518 8.3335 19.9995 8.3335C19.4473 8.3335 18.9995 8.78122 18.9995 9.3335H20.9995ZM20.9995 14.1335C20.9995 13.5812 20.5518 13.1335 19.9995 13.1335C19.4473 13.1335 18.9995 13.5812 18.9995 14.1335H20.9995ZM18.9995 25.8668C18.9995 26.4191 19.4473 26.8668 19.9995 26.8668C20.5518 26.8668 20.9995 26.4191 20.9995 25.8668H18.9995ZM16.6841 27.2162C16.2511 27.559 16.178 28.1879 16.5208 28.6208C16.8636 29.0539 17.4926 29.127 17.9255 28.7842L16.6841 27.2162ZM20.6202 26.6508C21.0533 26.308 21.1263 25.6791 20.7835 25.2462C20.4407 24.8131 19.8118 24.74 19.3789 25.0828L20.6202 26.6508ZM20.6202 25.0828C20.1873 24.74 19.5583 24.8131 19.2155 25.2462C18.8727 25.6791 18.9458 26.308 19.3789 26.6508L20.6202 25.0828ZM22.0735 28.7842C22.5065 29.127 23.1354 29.0539 23.4782 28.6208C23.821 28.1879 23.7479 27.559 23.3149 27.2162L22.0735 28.7842ZM20.9995 25.8668C20.9995 25.3146 20.5518 24.8668 19.9995 24.8668C19.4473 24.8668 18.9995 25.3146 18.9995 25.8668H20.9995ZM18.9995 30.6668C18.9995 31.2191 19.4473 31.6668 19.9995 31.6668C20.5518 31.6668 20.9995 31.2191 20.9995 30.6668H18.9995ZM12.0135 20.7582C11.4984 20.559 10.9194 20.8151 10.7202 21.3302C10.521 21.8452 10.7771 22.4243 11.2922 22.6235L12.0135 20.7582ZM14.5055 23.8662C15.0206 24.0654 15.5997 23.8092 15.7989 23.2942C15.9981 22.7791 15.742 22.2 15.2269 22.0008L14.5055 23.8662ZM15.8545 23.0858C15.9386 22.5399 15.5643 22.0292 15.0184 21.9451C14.4726 21.8611 13.9619 22.2354 13.8778 22.7812L15.8545 23.0858ZM13.3578 26.1572C13.2738 26.7031 13.6481 27.2138 14.194 27.2979C14.7398 27.3819 15.2505 27.0076 15.3345 26.4618L13.3578 26.1572ZM15.3623 23.8018C15.8418 23.5278 16.0084 22.9168 15.7344 22.4374C15.4604 21.9579 14.8496 21.7912 14.3701 22.0652L15.3623 23.8018ZM10.1701 24.4652C9.69053 24.7392 9.52393 25.3502 9.79795 25.8296C10.072 26.3091 10.6828 26.4758 11.1623 26.2018L10.1701 24.4652ZM14.3701 22.0652C13.8905 22.3392 13.7239 22.9502 13.9979 23.4296C14.272 23.9091 14.8828 24.0758 15.3623 23.8018L14.3701 22.0652ZM25.629 17.9351C26.1085 17.6611 26.2751 17.0502 26.0011 16.5707C25.7271 16.0912 25.1162 15.9246 24.6367 16.1986L25.629 17.9351ZM27.9855 19.2422C28.5006 19.4414 29.0797 19.1852 29.2789 18.6702C29.4781 18.1551 29.2219 17.576 28.7069 17.3768L27.9855 19.2422ZM25.4935 16.1341C24.9785 15.9349 24.3994 16.191 24.2002 16.7061C24.001 17.2212 24.2571 17.8003 24.7722 17.9995L25.4935 16.1341ZM24.1445 16.9146C24.0605 17.4604 24.4347 17.9711 24.9806 18.0552C25.5265 18.1392 26.0371 17.765 26.1213 17.2191L24.1445 16.9146ZM26.6413 13.8431C26.7253 13.2972 26.351 12.7866 25.8051 12.7025C25.2593 12.6184 24.7486 12.9927 24.6645 13.5386L26.6413 13.8431ZM24.6367 16.1986C24.1573 16.4726 23.9906 17.0835 24.2646 17.563C24.5386 18.0424 25.1495 18.2091 25.629 17.9351L24.6367 16.1986ZM29.829 15.5351C30.3085 15.2611 30.4751 14.6502 30.2011 14.1707C29.9271 13.6912 29.3162 13.5246 28.8367 13.7986L29.829 15.5351ZM11.2922 17.3768C10.7771 17.576 10.521 18.1551 10.7202 18.6702C10.9194 19.1852 11.4984 19.4414 12.0135 19.2422L11.2922 17.3768ZM15.2269 17.9995C15.742 17.8003 15.9981 17.2212 15.7989 16.7061C15.5997 16.191 15.0206 15.9349 14.5055 16.1341L15.2269 17.9995ZM13.8778 17.2191C13.9619 17.765 14.4726 18.1392 15.0184 18.0552C15.5643 17.9711 15.9386 17.4604 15.8545 16.9146L13.8778 17.2191ZM15.3345 13.5386C15.2505 12.9927 14.7398 12.6184 14.194 12.7025C13.6481 12.7866 13.2738 13.2972 13.3578 13.8431L15.3345 13.5386ZM14.3701 17.9351C14.8496 18.2091 15.4604 18.0424 15.7344 17.563C16.0084 17.0835 15.8418 16.4726 15.3623 16.1986L14.3701 17.9351ZM11.1623 13.7986C10.6828 13.5246 10.072 13.6912 9.79795 14.1707C9.52393 14.6502 9.69053 15.2611 10.1701 15.5351L11.1623 13.7986ZM15.3623 16.1986C14.8828 15.9246 14.272 16.0912 13.9979 16.5707C13.7239 17.0502 13.8905 17.6611 14.3701 17.9351L15.3623 16.1986ZM24.6367 23.8018C25.1162 24.0758 25.7271 23.9091 26.0011 23.4296C26.2751 22.9502 26.1085 22.3392 25.629 22.0652L24.6367 23.8018ZM28.7069 22.6235C29.2219 22.4243 29.4781 21.8452 29.2789 21.3302C29.0797 20.8151 28.5006 20.559 27.9855 20.7582L28.7069 22.6235ZM24.7722 22.0008C24.2571 22.2 24.001 22.7791 24.2002 23.2942C24.3994 23.8092 24.9785 24.0654 25.4935 23.8662L24.7722 22.0008ZM26.1213 22.7812C26.0371 22.2354 25.5265 21.8611 24.9806 21.9451C24.4347 22.0292 24.0605 22.5399 24.1445 23.0858L26.1213 22.7812ZM24.6645 26.4618C24.7486 27.0076 25.2593 27.3819 25.8051 27.2979C26.351 27.2138 26.7253 26.7031 26.6413 26.1572L24.6645 26.4618ZM25.629 22.0652C25.1495 21.7912 24.5386 21.9579 24.2646 22.4374C23.9906 22.9168 24.1573 23.5278 24.6367 23.8018L25.629 22.0652ZM28.8367 26.2018C29.3162 26.4758 29.9271 26.3091 30.2011 25.8296C30.4751 25.3502 30.3085 24.7392 29.829 24.4652L28.8367 26.2018ZM22.0735 11.2161L19.3789 13.3495L20.6202 14.9175L23.3149 12.7842L22.0735 11.2161ZM20.6202 13.3495L17.9255 11.2161L16.6841 12.7842L19.3789 14.9175L20.6202 13.3495ZM20.9995 14.1335V9.3335H18.9995V14.1335H20.9995ZM18.9995 14.1335V25.8668H20.9995V14.1335H18.9995ZM17.9255 28.7842L20.6202 26.6508L19.3789 25.0828L16.6841 27.2162L17.9255 28.7842ZM19.3789 26.6508L22.0735 28.7842L23.3149 27.2162L20.6202 25.0828L19.3789 26.6508ZM18.9995 25.8668V30.6668H20.9995V25.8668H18.9995ZM11.2922 22.6235L14.5055 23.8662L15.2269 22.0008L12.0135 20.7582L11.2922 22.6235ZM13.8778 22.7812L13.3578 26.1572L15.3345 26.4618L15.8545 23.0858L13.8778 22.7812ZM14.3701 22.0652L10.1701 24.4652L11.1623 26.2018L15.3623 23.8018L14.3701 22.0652ZM15.3623 23.8018L25.629 17.9351L24.6367 16.1986L14.3701 22.0652L15.3623 23.8018ZM28.7069 17.3768L25.4935 16.1341L24.7722 17.9995L27.9855 19.2422L28.7069 17.3768ZM26.1213 17.2191L26.6413 13.8431L24.6645 13.5386L24.1445 16.9146L26.1213 17.2191ZM25.629 17.9351L29.829 15.5351L28.8367 13.7986L24.6367 16.1986L25.629 17.9351ZM12.0135 19.2422L15.2269 17.9995L14.5055 16.1341L11.2922 17.3768L12.0135 19.2422ZM15.8545 16.9146L15.3345 13.5386L13.3578 13.8431L13.8778 17.2191L15.8545 16.9146ZM15.3623 16.1986L11.1623 13.7986L10.1701 15.5351L14.3701 17.9351L15.3623 16.1986ZM14.3701 17.9351L24.6367 23.8018L25.629 22.0652L15.3623 16.1986L14.3701 17.9351ZM27.9855 20.7582L24.7722 22.0008L25.4935 23.8662L28.7069 22.6235L27.9855 20.7582ZM24.1445 23.0858L24.6645 26.4618L26.6413 26.1572L26.1213 22.7812L24.1445 23.0858ZM24.6367 23.8018L28.8367 26.2018L29.829 24.4652L25.629 22.0652L24.6367 23.8018Z" fill="#3B82F6"/>
</svg>
