<svg width="32" height="32" viewBox="0 0 32 32" fill="none" xmlns="http://www.w3.org/2000/svg">
<rect width="32" height="32" rx="16" fill="#FEE2E2"/>
<path d="M18.2833 13.4999L17.995 20.9999M14.005 20.9999L13.7167 13.4999M22.0233 10.8249C22.3083 10.8683 22.5917 10.9141 22.875 10.9633M22.0233 10.8249L21.1333 22.3941C21.097 22.8651 20.8842 23.3051 20.5375 23.626C20.1908 23.9469 19.7358 24.1251 19.2633 24.1249H12.7367C12.2642 24.1251 11.8092 23.9469 11.4625 23.626C11.1158 23.3051 10.903 22.8651 10.8667 22.3941L9.97667 10.8249M22.0233 10.8249C21.0616 10.6795 20.0948 10.5692 19.125 10.4941M9.97667 10.8249C9.69167 10.8674 9.40833 10.9133 9.125 10.9624M9.97667 10.8249C10.9384 10.6795 11.9052 10.5692 12.875 10.4941M19.125 10.4941V9.73078C19.125 8.74745 18.3667 7.92745 17.3833 7.89661C16.4613 7.86714 15.5387 7.86714 14.6167 7.89661C13.6333 7.92745 12.875 8.74828 12.875 9.73078V10.4941M19.125 10.4941C17.0448 10.3333 14.9552 10.3333 12.875 10.4941" stroke="#EF4444" stroke-width="1.5" stroke-linecap="round" stroke-linejoin="round"/>
</svg>
