<svg width="40" height="40" viewBox="0 0 40 40" fill="none" xmlns="http://www.w3.org/2000/svg">
<rect width="40" height="40" rx="20" fill="url(#paint0_linear_1918_46)"/>
<path d="M23.75 11C23.75 11.9946 23.3549 12.9484 22.6516 13.6517C21.9484 14.3549 20.9946 14.75 20 14.75C19.0054 14.75 18.0516 14.3549 17.3483 13.6517C16.6451 12.9484 16.25 11.9946 16.25 11C16.25 10.0054 16.6451 9.05161 17.3483 8.34835C18.0516 7.64509 19.0054 7.25 20 7.25C20.9946 7.25 21.9484 7.64509 22.6516 8.34835C23.3549 9.05161 23.75 10.0054 23.75 11Z" stroke="white" stroke-width="1.5" stroke-linecap="round" stroke-linejoin="round"/>
<path d="M12.6875 25.57C12.6875 26.77 13.5297 27.8155 14.7177 27.9903C15.533 28.1103 16.3565 28.2025 17.1875 28.267V31.75L20.2445 28.693C20.4518 28.487 20.7301 28.3681 21.0222 28.3608C22.4483 28.3213 23.8708 28.1976 25.2822 27.9903C26.4702 27.8155 27.3125 26.7708 27.3125 25.5693V21.0558C27.3125 19.8543 26.4702 18.8095 25.2822 18.6348C23.5332 18.378 21.7678 18.2494 20 18.25C18.206 18.25 16.442 18.3813 14.7177 18.6348C13.5297 18.8095 12.6875 19.855 12.6875 21.0558V25.5693V25.57Z" stroke="white" stroke-width="1.5" stroke-linecap="round" stroke-linejoin="round"/>
<defs>
<linearGradient id="paint0_linear_1918_46" x1="20" y1="0" x2="20" y2="40" gradientUnits="userSpaceOnUse">
<stop stop-color="#865DFF"/>
<stop offset="1" stop-color="#2AABEE"/>
</linearGradient>
</defs>
</svg>
