<svg width="40" height="40" viewBox="0 0 40 40" fill="none" xmlns="http://www.w3.org/2000/svg">
<rect width="40" height="40" rx="20" fill="url(#paint0_linear_1910_17)"/>
<path d="M22.999 27.128C23.852 27.3757 24.7358 27.5009 25.624 27.5C27.0525 27.5021 28.4623 27.1764 29.745 26.548C29.783 25.6517 29.5277 24.7675 29.0178 24.0293C28.508 23.2912 27.7714 22.7394 26.9198 22.4575C26.0681 22.1757 25.1477 22.1791 24.2982 22.4674C23.4487 22.7557 22.7163 23.313 22.212 24.055M22.999 27.128V27.125C22.999 26.012 22.713 24.965 22.212 24.055M22.999 27.128V27.234C21.0745 28.3931 18.8697 29.0038 16.623 29C14.292 29 12.111 28.355 10.249 27.234L10.248 27.125C10.2473 25.7095 10.7177 24.3339 11.585 23.2153C12.4524 22.0966 13.6674 21.2984 15.0385 20.9466C16.4097 20.5948 17.8589 20.7093 19.1577 21.2721C20.4566 21.8349 21.5311 22.814 22.212 24.055M19.999 14.375C19.999 15.2701 19.6435 16.1285 19.0105 16.7615C18.3776 17.3944 17.5192 17.75 16.624 17.75C15.7289 17.75 14.8705 17.3944 14.2376 16.7615C13.6046 16.1285 13.249 15.2701 13.249 14.375C13.249 13.4799 13.6046 12.6214 14.2376 11.9885C14.8705 11.3556 15.7289 11 16.624 11C17.5192 11 18.3776 11.3556 19.0105 11.9885C19.6435 12.6214 19.999 13.4799 19.999 14.375ZM28.249 16.625C28.249 17.3212 27.9725 17.9889 27.4802 18.4812C26.9879 18.9734 26.3202 19.25 25.624 19.25C24.9279 19.25 24.2602 18.9734 23.7679 18.4812C23.2756 17.9889 22.999 17.3212 22.999 16.625C22.999 15.9288 23.2756 15.2611 23.7679 14.7688C24.2602 14.2766 24.9279 14 25.624 14C26.3202 14 26.9879 14.2766 27.4802 14.7688C27.9725 15.2611 28.249 15.9288 28.249 16.625Z" stroke="white" stroke-width="1.5" stroke-linecap="round" stroke-linejoin="round"/>
<defs>
<linearGradient id="paint0_linear_1910_17" x1="20" y1="0" x2="20" y2="40" gradientUnits="userSpaceOnUse">
<stop stop-color="#1A3EDD"/>
<stop offset="1" stop-color="#4F75FF"/>
</linearGradient>
</defs>
</svg>
